<?xml version="1.0" standalone="no"?>
<!DOCTYPE svg PUBLIC "-//W3C//DTD SVG 20010904//EN"
 "http://www.w3.org/TR/2001/REC-SVG-20010904/DTD/svg10.dtd">
<svg version="1.0" xmlns="http://www.w3.org/2000/svg"
 width="377.000000pt" height="377.000000pt" viewBox="0 0 377.000000 377.000000"
 preserveAspectRatio="xMidYMid meet">
<metadata>
Created by potrace 1.11, written by Peter Selinger 2001-2013
</metadata>
<g transform="translate(0.000000,377.000000) scale(0.100000,-0.100000)"
fill="#000000" stroke="none">
<path d="M921 2563 c-7 -54 -14 -110 -17 -124 -5 -32 -10 -76 -19 -154 -4 -33
-9 -69 -11 -80 -2 -11 -6 -42 -9 -70 -4 -27 -8 -62 -10 -76 -3 -15 -7 -47 -10
-70 -7 -60 -14 -112 -25 -194 -5 -38 -12 -92 -15 -120 -5 -49 -14 -119 -20
-162 -2 -12 -7 -57 -10 -100 -13 -136 -19 -144 -30 -36 -4 43 -8 86 -10 95 -2
9 -6 52 -9 95 -3 43 -8 87 -10 98 -2 11 -7 63 -11 115 -4 52 -8 104 -10 115
-1 11 -3 31 -4 44 -2 41 -9 20 -16 -49 -3 -36 -8 -72 -10 -80 -3 -8 -7 -35
-10 -60 -13 -102 -47 -203 -78 -229 -18 -15 -21 -11 -50 72 -13 34 -29 72 -37
85 -28 42 -75 22 -118 -51 -9 -15 -28 -31 -42 -35 -14 -4 -92 -7 -175 -6 -110
0 -139 -2 -110 -9 50 -11 271 -15 305 -5 14 4 40 28 58 53 18 26 38 45 45 42
7 -2 24 -38 38 -80 14 -41 31 -82 38 -90 34 -42 87 -16 117 58 20 46 33 58 32
28 -1 -22 11 -148 17 -183 2 -14 7 -50 10 -81 3 -31 7 -66 10 -77 2 -11 6 -36
9 -57 3 -20 11 -45 16 -56 12 -21 50 -26 51 -6 0 6 2 21 4 32 2 11 7 73 10
138 4 65 8 126 10 135 1 10 6 64 10 122 4 58 8 112 10 121 2 8 6 55 10 105 4
49 9 96 10 104 2 8 6 49 10 90 4 41 8 82 10 90 2 8 6 50 10 93 4 42 10 79 14
81 3 2 6 -56 5 -129 -2 -286 46 -489 132 -564 53 -47 77 -42 120 24 l35 56 28
-28 c50 -49 171 -87 376 -118 226 -33 723 -39 1035 -11 25 3 86 7 135 11 120
8 193 14 235 20 19 3 58 7 85 10 76 8 148 17 165 20 8 1 46 6 85 10 38 4 72 8
75 10 3 2 30 6 60 9 30 3 66 8 79 11 14 2 61 9 105 16 45 6 83 13 86 16 5 5
-161 -6 -170 -12 -3 -2 -43 -6 -90 -9 -47 -4 -100 -9 -119 -11 -19 -3 -71 -7
-115 -10 -45 -3 -97 -7 -116 -10 -19 -2 -78 -7 -130 -11 -52 -3 -113 -8 -135
-9 -356 -27 -1055 -27 -1225 0 -14 2 -45 7 -70 10 -61 8 -195 40 -249 59 -24
9 -61 32 -82 51 -49 44 -73 37 -114 -34 -16 -28 -34 -50 -39 -48 -5 2 -22 19
-38 38 -72 90 -112 319 -112 654 0 146 12 384 21 397 2 5 -2 8 -10 8 -11 0
-18 -25 -26 -97z"/>
<path d="M1216 2558 c-3 -13 -7 -39 -10 -58 -6 -47 -56 -408 -61 -440 -7 -45
-15 -104 -21 -155 -3 -27 -8 -59 -10 -70 -2 -11 -7 -41 -10 -66 l-6 -46 47 -6
c26 -4 164 -7 305 -7 l258 0 7 48 c3 26 9 61 11 78 5 30 4 31 -42 38 -26 3
-109 6 -186 6 l-139 0 6 43 c3 23 8 51 10 62 2 11 4 32 4 48 l1 27 160 0 160
0 1 28 c0 26 3 47 13 103 5 25 2 27 -41 33 -25 3 -95 6 -156 6 l-109 0 5 28
c3 15 9 55 13 90 l7 62 188 0 c189 0 189 0 190 23 2 33 7 79 13 108 5 25 2 27
-41 33 -25 3 -162 6 -304 6 l-259 0 -4 -22z"/>
<path d="M2128 2561 c-82 -27 -140 -64 -211 -135 -133 -135 -180 -314 -123
-470 58 -160 197 -249 391 -249 119 -1 202 32 299 116 l30 26 -38 57 c-27 41
-41 53 -49 45 -8 -8 -15 -7 -27 4 -15 13 -20 12 -51 -10 -38 -29 -117 -55
-165 -55 -61 0 -106 29 -149 95 -16 24 -20 47 -20 115 0 75 3 91 29 138 76
137 227 194 346 131 25 -13 52 -24 61 -25 9 -1 21 -4 27 -8 11 -6 38 16 91 77
l25 27 -30 31 c-91 96 -289 137 -436 90z"/>
<path d="M3286 2553 c-4 -16 -8 -42 -10 -59 -2 -17 -9 -64 -15 -105 -6 -41
-13 -94 -16 -119 -4 -25 -8 -56 -10 -70 -2 -14 -7 -45 -10 -70 -3 -25 -8 -56
-10 -70 -2 -14 -9 -63 -15 -110 -6 -47 -13 -96 -15 -110 -2 -14 -7 -46 -10
-71 l-6 -46 38 -6 c35 -6 522 -10 524 -4 0 1 6 36 13 79 l12 76 -35 6 c-20 3
-96 6 -169 6 l-134 0 7 43 c4 23 8 53 10 67 2 14 7 45 11 70 3 25 7 56 9 70 2
21 19 141 41 290 3 19 7 58 10 85 4 28 8 53 10 56 6 10 -64 19 -148 19 -75 0
-76 0 -82 -27z"/>
<path d="M2784 2321 c-50 -12 -133 -62 -169 -103 -62 -68 -109 -194 -99 -264
9 -61 17 -85 44 -127 54 -85 171 -133 307 -125 93 6 166 42 228 110 54 60 57
56 -70 83 l-76 15 -32 -24 c-18 -14 -50 -27 -71 -30 -30 -4 -43 0 -66 22 -16
15 -32 39 -36 55 l-6 27 210 0 c172 0 211 3 215 14 3 8 4 49 3 90 -5 102 -40
176 -103 216 -65 41 -196 60 -279 41z m143 -157 c12 -12 33 -57 33 -72 0 -4
-43 -7 -95 -7 -107 0 -118 9 -67 58 48 46 96 54 129 21z"/>
</g>
</svg>
